<svg xmlns="http://www.w3.org/2000/svg" aria-hidden="true" style="position:absolute;width:0;height:0;overflow:hidden"><defs><symbol id="icon-astronaut" viewBox="0 0 32 32"><path fill="#2196f3" d="M31.974 4.524a.534.534 0 0 0-.43-.363l-1.91-.278-.855-1.731c-.179-.365-.777-.365-.956 0l-.855 1.731-1.91.278a.535.535 0 0 0-.296.91l1.383 1.348-.326 1.903c-.034.2.048.402.212.522a.53.53 0 0 0 .562.04l1.709-.899 1.709.899a.536.536 0 0 0 .775-.563l-.326-1.903 1.383-1.348a.536.536 0 0 0 .135-.547zm-2.463 1.327a.534.534 0 0 0-.153.472l.191 1.114-1-.526a.533.533 0 0 0-.498 0l-1.001.526.191-1.114a.534.534 0 0 0-.153-.472l-.81-.789 1.119-.163a.532.532 0 0 0 .402-.292l.5-1.013.5 1.013a.535.535 0 0 0 .402.292l1.119.163-.809.789zM26.134 20.522h-1.067v1.067h1.067v-1.067zM26.134 22.656h-1.067v1.067h1.067v-1.067zM27.2 21.589h-1.067v1.067H27.2v-1.067zM25.067 21.589H24v1.067h1.067v-1.067zM22.4 26.389h-1.067v1.067H22.4v-1.067zM22.4 28.522h-1.067v1.067H22.4v-1.067zM23.467 27.456H22.4v1.067h1.067v-1.067zM21.333 27.456h-1.067v1.067h1.067v-1.067zM16 24.256h-1.067v1.067H16v-1.067zM16 26.389h-1.067v1.067H16v-1.067zM17.067 25.322H16v1.067h1.067v-1.067zM14.933 25.322h-1.067v1.067h1.067v-1.067zM5.867 6.122H4.8v1.067h1.067V6.122zM5.867 8.255H4.8v1.067h1.067V8.255z" style="fill:var(--color1, #2196f3)"/><path fill="#2196f3" d="M6.933 7.189H5.866v1.067h1.067V7.189zM4.8 7.189H3.733v1.067H4.8V7.189z" style="fill:var(--color1, #2196f3)"/><path fill="#212121" d="M24.715 14.159a1.775 1.775 0 0 0-1.188-.705 1.778 1.778 0 0 0-1.34.352l-1.252.96-1.898 1.417-1.358-.541c2.421-1.086 4.114-3.508 4.114-6.32 0-3.823-3.123-6.933-6.961-6.933s-6.961 3.11-6.961 6.933a6.86 6.86 0 0 0 1.12 3.758l-2.764-.024h-.005c-.009 0-.015.004-.023.005a.515.515 0 0 0-.155.031l-.038.013c-.006.003-.013.003-.019.006l-3.233 1.596-.001.001-1.893.911a.397.397 0 0 0-.063.035 1.779 1.779 0 0 0-.598 2.295c.22.429.595.745 1.056.889a1.776 1.776 0 0 0 1.378-.128l1.388-.738 2.264-1.169 1.357-.008L2.2 22.211l-.002.001-1.339 1.333c-.316.315-.49.732-.49 1.178s.174.863.49 1.179c.325.323.752.485 1.179.485s.854-.162 1.18-.485l1.314-1.309 1.741-1.3.901.897-1.762 1.754-.002.001-1.339 1.333c-.316.315-.49.732-.49 1.178s.174.863.49 1.179c.325.323.753.485 1.18.485s.855-.162 1.18-.485l3.482-3.467.001-.002 1.01-1-.004-.004c.006-.006.015-.009.022-.015l5.166-5.658 3.471.494a.52.52 0 0 0 .262-.033c.018-.006.033-.015.05-.023.019-.01.039-.015.058-.027l3.213-2.133c.012-.008.018-.021.029-.029.013-.01.029-.014.041-.026l1.271-1.191c.662-.62.753-1.635.212-2.362zM2.13 17.77a.714.714 0 0 1-.558.052.717.717 0 0 1-.213-1.26l1.314-.632.449 1.312-.992.528zm3.498-1.828-1.548.8-.439-1.283 2.027-1.001-.04 1.484zm15.099-6.62a5.79 5.79 0 0 1-.599 2.559l-4.181-1.899a1.863 1.863 0 0 0-.788-1.388l1.464-4.86c2.378.756 4.105 2.974 4.105 5.588zm-11.789 0c0-3.235 2.644-5.867 5.894-5.867.253 0 .5.021.745.052l-1.432 4.754c-.019-.001-.037-.006-.057-.006-1.033 0-1.873.837-1.873 1.867s.84 1.867 1.873 1.867c.694 0 1.294-.383 1.618-.945l3.862 1.755a5.894 5.894 0 0 1-4.737 2.39c-3.25 0-5.894-2.632-5.894-5.867zm5.956.8c0 .441-.362.8-.806.8s-.806-.359-.806-.8c0-.441.362-.8.806-.8s.806.359.806.8zM2.465 25.146a.608.608 0 0 1-.854.001.592.592 0 0 1 0-.844l.962-.958.851.848-.959.955zm3.214 3.734a.608.608 0 0 1-.855.001.592.592 0 0 1 0-.844l.963-.959.852.848-.96.955zm3.481-3.469-.002.001-1.765 1.76-.852-.848 1.763-1.755.002-.001c.04-.04.065-.088.09-.135.007-.014.02-.026.026-.04.017-.041.019-.085.026-.129.003-.025.014-.047.014-.073 0-.036-.013-.07-.02-.106-.006-.032-.006-.065-.019-.095a.55.55 0 0 0-.091-.138c-.01-.012-.014-.027-.025-.038h-.001l-.001-.002-1.607-1.6c-.017-.017-.039-.024-.058-.038a.507.507 0 0 0-.087-.058.515.515 0 0 0-.093-.033.507.507 0 0 0-.103-.02.5.5 0 0 0-.095.005.53.53 0 0 0-.104.02.477.477 0 0 0-.094.045c-.02.011-.042.015-.061.029L4.23 23.486l-.901-.897 2.399-2.386 4.361 4.289-.928.919zm6.819-7.017c-.015-.002-.03.004-.045.003a.556.556 0 0 0-.3.075.492.492 0 0 0-.083.061c-.013.011-.028.017-.04.029l-4.698 5.146-4.328-4.257 2.833-2.818a.534.534 0 0 0-.379-.911v-.001l-2.219.013.028-1.607 3.104.027a6.947 6.947 0 0 0 4.981 2.101c.437 0 .864-.045 1.279-.123.04.032.079.065.13.085l2.41.96.331 1.644-3.003-.427zm4.041.178-.313-1.558 1.446-1.08.947 1.257-2.08 1.381zm3.754-2.831-.838.785-.931-1.236.831-.637a.735.735 0 0 1 .543-.143.718.718 0 0 1 .48.284.713.713 0 0 1-.085.947z"/><path fill="#212121" d="m13.602 18.544-2.143-2.133a.534.534 0 0 0-.753 0l-2.142 2.133a.537.537 0 0 0 0 .756l2.142 2.133a.536.536 0 0 0 .753 0l2.143-2.133a.535.535 0 0 0 0-.756zm-2.519 1.759-1.387-1.381 1.387-1.381 1.387 1.381-1.387 1.381zM17.164 5.071l-.258 1.036c.071.018 1.738.452 1.738 2.149h1.067c0-2.017-1.666-2.965-2.547-3.185zM19.711 9.322h-1.067v1.067h1.067V9.322z" style="fill:var(--color2, #212121)"/></symbol><symbol id="icon-email" viewBox="0 0 43 32"> <path d="M38.667 0H4C1.794 0 0 1.794 0 4v24c0 2.206 1.794 4 4 4h34.667c2.206 0 4-1.794 4-4V4c0-2.206-1.794-4-4-4zm0 2.667c.181 0 .353.038.511.103L21.334 18.236 3.49 2.77a1.32 1.32 0 0 1 .511-.103h34.667zm0 26.666H4A1.334 1.334 0 0 1 2.667 28V5.587L20.46 21.008a1.335 1.335 0 0 0 1.748 0L40.001 5.587V28c0 .736-.598 1.333-1.333 1.333z" /></symbol><symbol id="icon-facebook" viewBox="0 0 18 32"><path d="M13.329 5.313h2.921V.225C15.746.156 14.013 0 11.994 0 7.782 0 4.897 2.649 4.897 7.519V12H.249v5.688h4.648V32h5.699V17.689h4.46l.708-5.688h-5.169V8.082c.001-1.644.444-2.769 2.735-2.769z"/></symbol><symbol id="icon-group-five" viewBox="0 0 44 32"><path d="M3.326 26.653c.17.193.261.435.256.683.009.162-.022.324-.091.473s-.173.283-.306.39a1.834 1.834 0 0 1-1.155.315H0v-4.329h1.989c.393-.024.782.078 1.102.288.128.098.23.223.297.363s.097.293.089.447a.943.943 0 0 1-.231.662 1.098 1.098 0 0 1-.605.338c.269.045.512.176.686.37zM.945 26h.85a.862.862 0 0 0 .541-.144c.064-.053.113-.119.145-.192s.044-.152.037-.231c.006-.078-.007-.157-.038-.23s-.08-.139-.142-.193a.876.876 0 0 0-.557-.146H.945V26zm1.473 1.66c.068-.054.122-.122.157-.198s.05-.159.044-.242a.514.514 0 0 0-.205-.444.94.94 0 0 0-.577-.157H.945v1.191h.903a.957.957 0 0 0 .571-.15zM7.392 28.514l-1.106-1.692H5.87v1.692h-.952v-4.329H6.72c.454-.029.903.103 1.254.368.252.235.404.545.428.873s-.08.654-.294.918a1.5 1.5 0 0 1-.859.44l1.178 1.73H7.392zm-1.523-2.282h.778c.54 0 .811-.218.811-.656.006-.089-.009-.179-.043-.262s-.087-.16-.155-.224a.895.895 0 0 0-.612-.175H5.86l.009 1.318zM12.593 27.643h-1.896l-.335.871h-.998l1.742-4.281h1.079l1.735 4.281h-.998l-.328-.871zm-.254-.656-.693-1.827-.693 1.827h1.386zM19.105 28.514h-.945l-2.118-2.944v2.944H15.1v-4.329h.942l2.118 2.961v-2.961h.945v4.329zM24.496 27.478a1.968 1.968 0 0 1-.855.764c-.411.19-.868.284-1.328.273h-1.682v-4.329h1.682c.46-.011.916.08 1.328.266.362.167.66.43.855.755.194.352.296.741.296 1.136s-.101.784-.296 1.136zm-1.081-.104c.27-.288.418-.654.418-1.033s-.148-.746-.418-1.033a1.737 1.737 0 0 0-1.183-.368h-.656v2.802h.656c.432.025.857-.108 1.183-.368zM13.185.104S25.379 4.319 25.12 10.419v10.317s-12.184-4.217-11.93-10.317L13.185.104zM35.983 18.32c2.303-1.451 4.967-2.35 7.747-2.614v-3.23c-3.204 1.131-5.922 3.181-7.747 5.844z" /><path  d="M34.599 19.293c1.885-3.475 5.153-6.157 9.131-7.493V2.494s-17.366 6.004-16.998 14.69v14.688s.774-.269 1.991-.772c0-.469 0-.943.055-1.419.359-4.032 2.453-7.769 5.821-10.389z" /><path  d="M32.948 24.75c.091-1.019.295-2.026.608-3.008-2.097 2.262-3.367 5.069-3.631 8.026-.025.279-.039.558-.046.846a52.42 52.42 0 0 0 3.34-1.612 13.916 13.916 0 0 1-.27-4.253zM33.639 24.802a13.314 13.314 0 0 0 .215 3.851c4.744-2.599 10.076-6.616 9.87-11.469v-.423c-3.39.347-6.561 1.704-9.027 3.862a13.474 13.474 0 0 0-1.058 4.179z" /></symbol><symbol id="icon-group-four" viewBox="0 0 67 32"><path  d="M10.288 9.82h-.002c-1.877 0-3.398 1.352-3.398 3.02v.002c0 1.668 1.521 3.02 3.398 3.02h.002c1.877 0 3.398-1.352 3.398-3.02v-.002c0-1.668-1.521-3.02-3.398-3.02zM35.37 8.854c-.005-2.316-1.043-4.537-2.886-6.175S28.143.118 25.536.113c-2.607.004-5.107.926-6.95 2.565s-2.882 3.859-2.888 6.176v12.774S35.367 19.681 35.37 8.856v-.002zM0 25.821c.005 1.612.727 3.156 2.009 4.296s3.02 1.782 4.834 1.787c1.813-.005 3.551-.647 4.833-1.787s2.005-2.684 2.01-4.295v-8.889S0 18.289 0 25.82zm6.843 1.593c-.354 0-.701-.093-.996-.268s-.524-.424-.66-.715-.171-.611-.102-.92.24-.593.49-.815.57-.374.918-.436c.348-.061.708-.03 1.035.091s.607.325.804.587.302.57.302.885c.001.21-.045.417-.134.611s-.222.37-.388.519c-.167.149-.364.266-.582.347s-.451.122-.687.122v-.006zM20.674 26.537h-1.321v1.364h-.688v-3.338h2.174v.557h-1.486v.862h1.321v.555zm3.307-.23c0 .329-.058.617-.174.864s-.283.439-.5.573a1.368 1.368 0 0 1-.743.202c-.277 0-.523-.067-.741-.2s-.385-.323-.504-.569a1.962 1.962 0 0 1-.181-.853v-.165c0-.329.059-.618.176-.867.119-.251.287-.443.502-.576.217-.135.465-.202.743-.202s.525.067.741.202c.217.133.384.325.502.576.119.249.179.537.179.864v.149zm-.697-.151c0-.35-.063-.616-.188-.798s-.304-.273-.536-.273a.61.61 0 0 0-.534.271c-.125.179-.189.442-.19.789v.163c0 .341.063.605.188.793s.306.282.541.282c.231 0 .408-.09.532-.271.124-.182.186-.446.188-.793v-.163zm2.928.869a.35.35 0 0 0-.138-.298c-.092-.07-.257-.144-.495-.22a3.577 3.577 0 0 1-.566-.229c-.379-.205-.569-.481-.569-.828 0-.18.05-.341.151-.482a.992.992 0 0 1 .438-.332c.191-.079.405-.119.642-.119.238 0 .451.044.637.131a.999.999 0 0 1 .433.365.95.95 0 0 1 .156.536h-.688a.446.446 0 0 0-.144-.355c-.096-.086-.232-.128-.406-.128-.168 0-.299.036-.392.108a.334.334 0 0 0-.14.28c0 .109.054.2.163.273.11.073.271.142.484.206.391.118.676.264.855.438s.268.391.268.651a.805.805 0 0 1-.328.681c-.218.164-.513.245-.883.245-.257 0-.491-.047-.702-.14a1.133 1.133 0 0 1-.484-.387.996.996 0 0 1-.165-.569h.69c0 .368.22.553.66.553a.646.646 0 0 0 .383-.099.326.326 0 0 0 .138-.28zm3.67-1.905h-1.023v2.781h-.688V25.12h-1.009v-.557h2.719v.557zm2.403 1.334h-1.321v.894h1.55v.552h-2.238v-3.338h2.233v.557h-1.545v.796h1.321v.539zm1.869.225h-.548v1.222h-.688v-3.338h1.24c.394 0 .698.088.913.264s.321.424.321.745c0 .228-.05.418-.149.571a1.006 1.006 0 0 1-.447.362l.722 1.364v.032h-.738l-.626-1.222zm-.548-.557h.555c.173 0 .306-.044.401-.131a.475.475 0 0 0 .142-.365.506.506 0 0 0-.135-.372c-.089-.09-.225-.135-.41-.135h-.553v1.002zm4.168.603v1.176h-.688v-3.338h1.302c.251 0 .471.046.66.138.191.092.338.222.44.392.102.168.154.36.154.576 0 .327-.112.585-.337.775-.223.188-.533.282-.929.282h-.603zm0-.557h.614c.182 0 .32-.043.415-.128.096-.086.144-.208.144-.367 0-.164-.048-.296-.144-.397s-.229-.153-.399-.156h-.63v1.048zm4.352.286h-1.321v.894h1.55v.552h-2.238v-3.338h2.233v.557h-1.545v.796h1.321v.539zm3.191-1.334h-1.023v2.781h-.688V25.12h-1.009v-.557h2.719v.557zm2.403 1.334h-1.321v.894h1.55v.552h-2.238v-3.338h2.233v.557h-1.545v.796h1.321v.539zm1.869.225h-.548v1.222h-.688v-3.338h1.24c.394 0 .699.088.913.264s.321.424.321.745c0 .228-.05.418-.149.571a1.006 1.006 0 0 1-.447.362l.722 1.364v.032h-.738l-.626-1.222zm-.548-.557h.555c.173 0 .306-.044.401-.131a.475.475 0 0 0 .142-.365.506.506 0 0 0-.135-.372c-.089-.09-.225-.135-.41-.135h-.553v1.002zm4.042.903a.35.35 0 0 0-.138-.298c-.092-.07-.257-.144-.495-.22a3.577 3.577 0 0 1-.566-.229c-.379-.205-.569-.481-.569-.828 0-.18.05-.341.151-.482a.992.992 0 0 1 .438-.332c.191-.079.405-.119.642-.119.238 0 .451.044.637.131a.993.993 0 0 1 .433.365.95.95 0 0 1 .156.536h-.688a.446.446 0 0 0-.144-.355c-.096-.086-.232-.128-.406-.128-.168 0-.299.036-.392.108a.334.334 0 0 0-.14.28c0 .109.054.2.163.273.11.073.271.142.484.206.391.118.676.264.855.438s.268.391.268.651a.805.805 0 0 1-.328.681c-.219.164-.513.245-.883.245-.257 0-.491-.047-.702-.14a1.133 1.133 0 0 1-.484-.387.996.996 0 0 1-.165-.569h.69c0 .368.22.553.66.553a.648.648 0 0 0 .383-.099.326.326 0 0 0 .138-.28z" /></symbol><symbol id="icon-group-one" viewBox="0 0 28 32"><path d="m4.175 0 4.771 4.517L.09 4.512v21.915h23.149v-8.379l4.766 4.512V.001H4.175zm18.854 17.517L9.501 4.71h13.528v12.807zm-4.2 5.704H3.753V8.482h1.066v13.741h14.01v.998zM7.313 29.344l-.557 1.147-.557-1.147h-.467l.813 1.529v.891h.422v-.891l.811-1.529h-.465zm.7 2.42.196-.563h.938l.198.563h.439l-.916-2.42h-.377l-.914 2.42h.437zm.664-1.906.351 1.004h-.701l.351-1.004zm2.218.946a.55.55 0 0 0-.091.307c0 .204.072.37.214.497.144.126.336.189.575.189s.445-.065.618-.194l.136.161h.469l-.356-.421c.14-.191.209-.435.209-.733h-.351a.973.973 0 0 1-.101.444l-.467-.552.165-.12a.905.905 0 0 0 .251-.253.532.532 0 0 0 .076-.279.496.496 0 0 0-.17-.384.61.61 0 0 0-.432-.156.641.641 0 0 0-.465.166.591.591 0 0 0-.173.449c0 .078.018.158.055.241.038.083.104.184.198.303-.18.129-.3.24-.361.334zm1.092.535a.616.616 0 0 1-.382.136c-.121 0-.217-.035-.289-.105s-.108-.161-.108-.273c0-.13.067-.245.2-.346l.052-.037.529.623zm-.434-1.072c-.114-.141-.171-.258-.171-.351 0-.081.023-.148.07-.201s.109-.08.188-.08c.073 0 .133.023.181.068a.21.21 0 0 1 .072.161.298.298 0 0 1-.103.234l-.052.042-.184.126zm3.94 1.314c.166-.145.262-.347.286-.605h-.419c-.022.173-.075.296-.158.371s-.207.111-.372.111a.468.468 0 0 1-.412-.206c-.093-.137-.14-.337-.14-.598v-.214c.002-.258.052-.454.15-.587a.493.493 0 0 1 .422-.201c.157 0 .277.039.357.116.082.076.133.202.153.376h.419c-.027-.265-.121-.47-.284-.615s-.378-.218-.645-.218a.978.978 0 0 0-.525.141c-.151.094-.267.228-.347.402s-.121.375-.121.603v.226c.003.223.045.418.125.587s.193.299.339.391a.949.949 0 0 0 .51.136c.276 0 .497-.072.663-.216zm2.471-.339c.082-.18.123-.388.123-.625v-.135a1.462 1.462 0 0 0-.126-.62.924.924 0 0 0-.878-.552.957.957 0 0 0-.525.145.939.939 0 0 0-.354.414 1.484 1.484 0 0 0-.125.625v.136c.001.232.043.436.126.613a.962.962 0 0 0 .356.411.98.98 0 0 0 .525.143.97.97 0 0 0 .525-.143.932.932 0 0 0 .352-.412zm-.45-1.368c.102.143.153.349.153.617v.126c0 .273-.05.48-.151.622a.493.493 0 0 1-.429.213.503.503 0 0 1-.432-.218c-.103-.145-.155-.351-.155-.617v-.14c.002-.26.054-.462.156-.603a.496.496 0 0 1 .427-.214c.186 0 .33.072.43.214z"/></symbol><symbol id="icon-group-six" viewBox="0 0 68 32"><path d="M34.469 15.206a2.146 2.146 0 0 1-.44-1.445v-2.096c0-.642.146-1.131.437-1.464s.792-.5 1.501-.499c.667 0 1.14.142 1.42.426.305.363.454.806.42 1.253v.492h-1.193v-.499a2.495 2.495 0 0 0-.035-.488.47.47 0 0 0-.17-.29.688.688 0 0 0-.432-.113.73.73 0 0 0-.454.119.564.564 0 0 0-.198.32c-.034.171-.05.345-.047.518v2.543a1.3 1.3 0 0 0 .153.714c.059.075.142.135.238.173s.203.052.308.04a.651.651 0 0 0 .422-.115.512.512 0 0 0 .178-.309c.028-.169.04-.339.037-.509v-.516h1.193v.471a1.92 1.92 0 0 1-.412 1.317c-.274.311-.741.467-1.427.467s-1.205-.166-1.499-.512zM39.434 15.228c-.301-.326-.452-.802-.452-1.43v-2.204c0-.622.151-1.094.452-1.413s.805-.479 1.511-.477c.701 0 1.203.159 1.504.477.301.32.454.791.454 1.413v2.204c0 .622-.153 1.1-.459 1.428s-.805.492-1.499.492c-.694 0-1.207-.166-1.511-.49zm2.067-.529c.108-.204.157-.428.143-.652v-2.699a1.198 1.198 0 0 0-.141-.639c-.06-.077-.145-.138-.244-.176s-.208-.051-.315-.037c-.107-.013-.216 0-.315.038s-.184.098-.245.175c-.109.2-.158.419-.143.639v2.712c-.015.224.034.448.143.652.069.069.155.124.252.162a.84.84 0 0 0 .612 0 .738.738 0 0 0 .252-.162v-.013zM44.338 9.767h1.284l.965 4.067.988-4.067h1.249l.126 5.87h-.923l-.099-4.08-.953 4.08h-.741l-.988-4.095-.091 4.095h-.933l.116-5.87zM50.389 9.767h2c1.152 0 1.728.556 1.728 1.667 0 1.064-.607 1.596-1.82 1.594h-.681v2.609h-1.235l.007-5.87zm1.709 2.508c.122.013.246.004.363-.028s.225-.086.316-.157a.95.95 0 0 0 .178-.663 1.849 1.849 0 0 0-.059-.533c-.018-.058-.048-.113-.091-.161s-.095-.088-.156-.118a1.285 1.285 0 0 0-.551-.094h-.479v1.754h.479zM55.898 9.767h1.326l1.36 5.87h-1.151l-.269-1.354h-1.183l-.277 1.354h-1.168l1.36-5.87zm1.133 3.836-.462-2.464-.462 2.464h.923zM59.683 9.767h.864l1.654 3.349V9.767h1.025v5.87h-.822l-1.664-3.496v3.496h-1.059l.002-5.87zM65.626 13.399l-1.375-3.624h1.158l.84 2.328.788-2.328h1.133l-1.358 3.624v2.238h-1.185v-2.238zM36.375 18.203v.307h-1.007v2.385h-.422V18.51h-1.012v-.307h2.442zM39.533 20.896h-.326a.138.138 0 0 1-.091-.026.14.14 0 0 1-.054-.062l-.291-.639h-1.398l-.291.639a.17.17 0 0 1-.044.072.152.152 0 0 1-.091.026h-.326l1.235-2.692h.43l1.249 2.681zm-2.045-1h1.166L38.16 18.8a1.974 1.974 0 0 1-.091-.254l-.047.143-.044.113-.489 1.093zM41.661 20.631c.077.003.155.003.232 0 .067-.006.133-.017.198-.032.06-.013.12-.029.178-.049.054-.019.109-.043.165-.066v-.605h-.494c-.012.001-.024-.001-.036-.005s-.022-.009-.031-.017c-.008-.006-.015-.014-.019-.022s-.006-.018-.006-.027v-.207h.958v1.032a1.92 1.92 0 0 1-.83.275c-.12.011-.24.017-.36.017a1.864 1.864 0 0 1-.622-.1 1.523 1.523 0 0 1-.494-.281 1.32 1.32 0 0 1-.319-.426 1.355 1.355 0 0 1-.114-.559 1.39 1.39 0 0 1 .111-.563c.071-.16.179-.305.319-.426a1.5 1.5 0 0 1 .494-.279c.211-.069.436-.103.662-.1.115 0 .23.008.343.023.1.014.199.037.294.068.086.028.169.064.247.107.076.042.148.089.215.141l-.119.166c-.009.015-.023.028-.04.037s-.036.014-.056.014a.17.17 0 0 1-.077-.021 1.33 1.33 0 0 1-.121-.064 1.488 1.488 0 0 0-.706-.155 1.448 1.448 0 0 0-.477.075.944.944 0 0 0-.593.548 1.26 1.26 0 0 0 0 .897.956.956 0 0 0 .247.339c.101.092.224.165.361.213.157.047.323.065.489.053zM45.597 20.589h1.348v.307h-1.76v-2.692h.422l-.01 2.385zM48.348 20.896h-.422v-2.692h.422v2.692zM49.918 18.216a.195.195 0 0 1 .064.049l1.805 2.029a.769.769 0 0 1 0-.096V18.192h.368v2.703h-.212a.2.2 0 0 1-.091-.015.243.243 0 0 1-.067-.051l-1.802-2.027v2.094h-.353v-2.693h.22a.18.18 0 0 1 .069.013zM55.264 18.203v.296h-1.496v.889h1.212v.286h-1.212v.919h1.496v.296h-1.931v-2.686h1.931zM11.02 1.577l18.748 4.596v16.105L11.02 17.684V1.577zM9.817.204v18.262l21.15 5.186V5.392L9.817.204z" /><path  d="M21.153 32.129 0 26.938V8.678l21.153 5.189v18.262z" /><path  d="m10.168 1.37 18.503 4.538-7.869 6.796-18.506-4.54 7.872-6.793zM9.817.204 0 8.679l21.153 5.188 9.815-8.475L9.818.204zM22.343 31.102l8.625-7.448-8.625-2.117v9.564z" /></symbol><symbol id="icon-group-three" viewBox="0 0 34 32"><path d="M5.558 31.086c.012 0 .024.003.035.007s.021.01.029.018l.164.156a1.341 1.341 0 0 1-.46.297 1.798 1.798 0 0 1-.653.107c-.21.004-.419-.03-.614-.1a1.346 1.346 0 0 1-.462-.281 1.261 1.261 0 0 1-.299-.434 1.446 1.446 0 0 1-.104-.557 1.282 1.282 0 0 1 .43-.992c.14-.122.307-.219.491-.283.202-.068.416-.102.632-.1.201-.004.4.027.587.091.162.061.311.146.44.251l-.137.167a.114.114 0 0 1-.035.03.088.088 0 0 1-.055.012.12.12 0 0 1-.059-.018l-.074-.044-.102-.057a1.088 1.088 0 0 0-.323-.099 1.417 1.417 0 0 0-.244-.018 1.311 1.311 0 0 0-.454.075 1.042 1.042 0 0 0-.356.21.966.966 0 0 0-.231.334 1.123 1.123 0 0 0-.084.441c-.002.152.026.304.084.448a.932.932 0 0 0 .567.538c.134.048.277.072.421.071.084.001.167-.004.25-.014a.99.99 0 0 0 .541-.229.126.126 0 0 1 .078-.028zM10.285 30.3c.003.189-.035.376-.11.553-.067.16-.172.307-.308.429s-.301.219-.484.282a1.99 1.99 0 0 1-1.244 0 1.423 1.423 0 0 1-.481-.283 1.264 1.264 0 0 1-.311-.434 1.447 1.447 0 0 1 0-1.108c.07-.162.176-.31.311-.436.137-.118.301-.211.481-.272.4-.135.844-.135 1.244 0 .182.064.346.16.483.283.135.124.24.269.309.428.076.178.113.367.11.556zm-.43 0a1.177 1.177 0 0 0-.078-.445.903.903 0 0 0-.565-.542 1.44 1.44 0 0 0-.904 0 .966.966 0 0 0-.346.21.896.896 0 0 0-.221.332c-.104.289-.104.6 0 .889a.896.896 0 0 0 .221.332.962.962 0 0 0 .346.208c.292.095.613.095.904 0a.962.962 0 0 0 .346-.208.933.933 0 0 0 .219-.332c.055-.143.081-.294.078-.445zM13.51 30.766l.043.1a2.39 2.39 0 0 1 .1-.198l1.046-1.651c.021-.028.039-.046.059-.052a.31.31 0 0 1 .086-.009h.309v2.686h-.366v-2.059a.706.706 0 0 1 0-.092l-1.052 1.675c-.013.025-.035.046-.062.061s-.058.023-.09.022h-.059c-.032 0-.063-.007-.09-.022s-.048-.036-.061-.061l-1.082-1.685v2.156h-.354v-2.681h.309a.277.277 0 0 1 .086.009.112.112 0 0 1 .057.052l1.068 1.653a.566.566 0 0 1 .053.096zM17.444 30.632v1.006h-.409v-2.683h.913c.172-.003.344.017.509.059.132.033.255.09.36.167a.7.7 0 0 1 .205.263.817.817 0 0 1 .07.343.737.737 0 0 1-.297.611 1.047 1.047 0 0 1-.362.178 1.737 1.737 0 0 1-.493.062l-.495-.007zm0-.288h.495c.108.001.215-.013.317-.041a.688.688 0 0 0 .229-.116.51.51 0 0 0 .188-.404c.005-.075-.009-.149-.041-.219s-.081-.132-.143-.183a.882.882 0 0 0-.55-.144h-.495v1.106zM22.945 31.642h-.323a.157.157 0 0 1-.09-.025.174.174 0 0 1-.053-.062l-.278-.649h-1.398l-.288.649a.15.15 0 0 1-.143.088h-.323l1.228-2.686h.426l1.244 2.686zm-2.026-.998h1.154l-.487-1.093a1.814 1.814 0 0 1-.092-.252l-.047.14a1.236 1.236 0 0 1-.045.114l-.483 1.092zM24.712 28.968a.18.18 0 0 1 .061.048l1.79 2.025v-2.085h.366v2.686h-.205a.2.2 0 0 1-.084-.016.25.25 0 0 1-.066-.05l-1.788-2.023a.706.706 0 0 1 0 .092v1.997h-.366v-2.686h.217a.209.209 0 0 1 .074.012zM29.947 30.573v1.067h-.409v-1.067l-1.131-1.618h.366a.147.147 0 0 1 .088.023.228.228 0 0 1 .055.061l.708 1.044c.029.044.053.085.074.124s.037.076.051.114l.053-.116a.945.945 0 0 1 .07-.123l.698-1.051a.317.317 0 0 1 .053-.057.142.142 0 0 1 .088-.027h.37l-1.134 1.625zM13.307 24.448c.178.02.358.036.54.05 2.761-1.073 5.097-2.829 6.715-5.049s2.448-4.805 2.384-7.433l-3.043-2.644c.619 2.797.329 5.689-.836 8.351s-3.16 4.991-5.761 6.724z" /><path  d="m12.221 24.325.082.014c2.78-1.727 4.899-4.14 6.084-6.925s1.381-5.815.562-8.698l-4.334-3.765c1.753 3.095 2.459 6.559 2.035 9.989s-1.96 6.684-4.429 9.386zM26.918 15.119c-.736 2.887-2.525 5.49-5.099 7.424a16.18 16.18 0 0 1-2.423 1.511c2.096-.535 4.023-1.482 5.632-2.767s2.857-2.873 3.647-4.643l-1.758-1.525z" /><path  d="m26.229 14.694-2.502-2.174c-.048 2.479-.859 4.901-2.349 7.016s-3.605 3.843-6.124 5.007h.012c.561 0 1.122-.029 1.68-.087 2.355-.835 4.435-2.163 6.054-3.867s2.729-3.729 3.229-5.895zM12.583 3.363 9.598.766c-2.669.896-4.964 2.471-6.585 4.519S.52 9.759.511 12.245c.01 2.747 1.074 5.412 3.024 7.575s4.674 3.698 7.741 4.363c2.738-2.898 4.341-6.48 4.576-10.224s-.91-7.456-3.269-10.596zM33.126 14.294c-.011-3.259-1.506-6.382-4.158-8.686s-6.247-3.603-9.997-3.613a15.858 15.858 0 0 0-5.068.82l18.278 15.881c.626-1.404.946-2.896.945-4.402z" /></symbol><symbol id="icon-group-two" viewBox="0 0 25 32"><path d="M10.531 1.806h-.084a9.985 9.985 0 0 0-.388-.014h-.28c-.244 0-.494.006-.741.019a.523.523 0 0 0-.056 0 17.4 17.4 0 0 0-6.471 1.651l-.266.128v13.625l.623-.211a23.32 23.32 0 0 1 1.731-.513 21.155 21.155 0 0 1 4.982-.662v1.79a15.56 15.56 0 0 0-.655.019h-.051a19.948 19.948 0 0 0-3.833.588c-1.59.398-3.124.996-4.566 1.779V2.53A18.3 18.3 0 0 1 5.266.582 18.343 18.343 0 0 1 9.781 0h.263c.314.008.621.022.909.044.759.053 1.511.173 2.249.358v1.762a13.947 13.947 0 0 0-2.179-.329l-.045-.004c-.152-.013-.304-.026-.446-.026zm3.102 1.801c.391.03.796.044 1.205.044a19.352 19.352 0 0 0 4.747-.609c1.589-.4 3.123-.998 4.564-1.781v17.163a18.313 18.313 0 0 1-4.792 1.948 18.486 18.486 0 0 1-4.515.581 13.778 13.778 0 0 1-3.425-.404V3.274c.265.061.537.117.814.164.455.077.934.133 1.401.167zm8.734.133-.623.21c-.573.192-1.15.365-1.731.518a21.098 21.098 0 0 1-5.173.663c-.406 0-.78-.011-1.141-.034l-.497-.033v14.017l.427.038c.395.034.803.052 1.214.052a16.573 16.573 0 0 0 4.074-.527 17.107 17.107 0 0 0 3.184-1.144l.266-.128V3.742zM1.684 25.977a.912.912 0 0 0-.693-.28 1.034 1.034 0 0 0-.4.075.91.91 0 0 0-.512.518 1.023 1.023 0 0 0-.072.387v2.335c-.006.165.026.328.092.479.055.12.135.226.233.313a.815.815 0 0 0 .321.166c.114.032.231.048.349.049a.972.972 0 0 0 .892-.61.951.951 0 0 0 .075-.372v-.261h-.61v.208a.528.528 0 0 1-.036.208.359.359 0 0 1-.089.131.365.365 0 0 1-.128.067.425.425 0 0 1-.128.022.314.314 0 0 1-.286-.125.548.548 0 0 1-.081-.313v-2.177a.738.738 0 0 1 .075-.349.31.31 0 0 1 .299-.141.33.33 0 0 1 .272.131c.068.09.104.2.101.313v.202h.604v-.238a1.093 1.093 0 0 0-.279-.737zM5.31 25.95a1.051 1.051 0 0 0-1.38 0 .961.961 0 0 0-.237.327 1.099 1.099 0 0 0-.089.452v2.239a1.08 1.08 0 0 0 .089.459c.055.12.136.227.237.313a.94.94 0 0 0 .322.197 1.028 1.028 0 0 0 .728 0c.121-.044.233-.111.33-.197a.948.948 0 0 0 .23-.313 1.08 1.08 0 0 0 .089-.459v-2.239a1.08 1.08 0 0 0-.089-.452 1.015 1.015 0 0 0-.23-.327zm-.285 3.019a.405.405 0 0 1-.121.324.445.445 0 0 1-.574 0 .397.397 0 0 1-.121-.324V26.73a.405.405 0 0 1 .121-.324.445.445 0 0 1 .574 0 .397.397 0 0 1 .121.324v2.239zM10.072 29.969V25.73h-.587l-.771 2.244h-.011l-.777-2.244h-.581v4.239h.606V27.39h.011l.593 1.823h.302l.598-1.823h.011v2.579h.606zM13.513 26.027a.84.84 0 0 0-.343-.232 1.363 1.363 0 0 0-.439-.066h-.9v4.239h.604v-1.656h.311c.188.009.376-.031.545-.116a.882.882 0 0 0 .332-.324 1.02 1.02 0 0 0 .139-.369c.024-.16.035-.321.033-.482a2.421 2.421 0 0 0-.059-.606.898.898 0 0 0-.223-.39zm-.312 1.292a.547.547 0 0 1-.056.221.346.346 0 0 1-.156.149.619.619 0 0 1-.285.053h-.275v-1.441h.311a.578.578 0 0 1 .272.053.349.349 0 0 1 .142.157.62.62 0 0 1 .053.236v.282c0 .099.006.2 0 .291h-.006zM16.374 25.73h-.495l-.934 4.239h.604l.177-.911h.823l.177.911h.604l-.957-4.239zm-.557 2.751.297-1.537h.011l.296 1.537h-.604zM20.277 28.284h-.011l-.912-2.554h-.581v4.239h.604V27.42h.012l.923 2.549h.568V25.73h-.604v2.554zM23.968 25.73l-.486 1.685h-.012l-.486-1.685h-.64l.83 2.447v1.792h.604v-1.792l.83-2.447h-.64zM0 31.166h.291v.817h.198v-.817h.29v-.167H.001v.167zM2.447 30.998l-.381.984h.21l.081-.224h.392l.084.224h.215l-.391-.984h-.21zm-.031.595.134-.365.134.365h-.268zM4.866 31.62h.227v.127a.382.382 0 0 1-.234.083.244.244 0 0 1-.209-.093.411.411 0 0 1-.073-.257c0-.219.095-.329.283-.329a.206.206 0 0 1 .222.157l.195-.038c-.042-.192-.181-.289-.417-.289a.495.495 0 0 0-.344.127.494.494 0 0 0-.141.379.532.532 0 0 0 .126.369.477.477 0 0 0 .374.144.59.59 0 0 0 .417-.157v-.388h-.427v.166zM7.337 30.998h-.199v.984h.69v-.167h-.49v-.817zM9.426 30.998h-.199v.984h.199v-.984zM11.469 31.656l-.403-.657h-.193v.984h.185v-.643l.395.643h.198v-.984h-.182v.657zM13.315 31.549h.49v-.167h-.49v-.216h.528v-.167h-.727v.984h.747v-.167h-.548v-.266zM17.792 31.387h-.388v-.388h-.198v.984h.198v-.43h.388v.43h.198v-.984h-.198v.388zM19.649 31.549h.492v-.167h-.492v-.216h.529v-.167h-.727v.984h.746v-.167h-.548v-.266zM22.168 31.549c.171-.027.258-.117.258-.274a.236.236 0 0 0-.096-.219.553.553 0 0 0-.288-.058h-.417v.984h.198v-.412h.039a.261.261 0 0 1 .123.022.21.21 0 0 1 .07.072l.215.313h.237l-.12-.192a.685.685 0 0 0-.218-.236zm-.199-.136h-.146v-.247h.156a.526.526 0 0 1 .201.023c.014.013.026.029.033.046a.133.133 0 0 1-.005.111.128.128 0 0 1-.037.043.547.547 0 0 1-.201.023zM24.067 31.549h.49v-.167h-.49v-.216h.529v-.167h-.729v.984h.747v-.167h-.548v-.266z"/></symbol><symbol id="icon-instagram" viewBox="0 0 32 32"><path d="M31.969 9.408c-.075-1.7-.35-2.869-.744-3.882a7.806 7.806 0 0 0-1.851-2.838A7.867 7.867 0 0 0 26.542.844C25.523.45 24.36.175 22.66.1 20.947.019 20.403 0 16.059 0s-4.888.019-6.595.094c-1.7.075-2.869.35-3.882.744a7.803 7.803 0 0 0-2.838 1.85A7.867 7.867 0 0 0 .9 5.52C.506 6.539.231 7.702.156 9.402c-.081 1.713-.1 2.257-.1 6.601s.019 4.888.094 6.595c.075 1.7.35 2.869.744 3.882a7.895 7.895 0 0 0 1.85 2.838 7.867 7.867 0 0 0 2.832 1.844c1.019.394 2.182.669 3.882.744 1.706.075 2.25.094 6.595.094s4.888-.019 6.595-.094c1.7-.075 2.869-.35 3.882-.744a8.184 8.184 0 0 0 4.682-4.682c.394-1.019.669-2.182.744-3.882.075-1.707.094-2.251.094-6.595s-.006-4.888-.081-6.595zm-2.882 13.065c-.069 1.563-.331 2.407-.55 2.969a5.31 5.31 0 0 1-3.038 3.038c-.563.219-1.413.481-2.969.55-1.688.075-2.194.094-6.464.094s-4.782-.019-6.464-.094c-1.563-.069-2.407-.331-2.969-.55a4.926 4.926 0 0 1-1.838-1.194 4.974 4.974 0 0 1-1.194-1.838c-.219-.563-.481-1.413-.55-2.969-.075-1.688-.094-2.194-.094-6.464s.019-4.782.094-6.464c.069-1.563.331-2.407.55-2.969a4.868 4.868 0 0 1 1.2-1.838A4.974 4.974 0 0 1 6.639 3.55c.563-.219 1.413-.481 2.969-.55 1.688-.075 2.194-.094 6.464-.094 4.276 0 4.782.019 6.464.094 1.563.069 2.407.331 2.969.55a4.914 4.914 0 0 1 1.838 1.194 4.974 4.974 0 0 1 1.194 1.838c.219.563.481 1.413.55 2.969.075 1.688.094 2.194.094 6.464s-.019 4.77-.094 6.458z"/><path d="M16.059 7.783c-4.538 0-8.22 3.682-8.22 8.22s3.682 8.22 8.22 8.22c4.539 0 8.22-3.682 8.22-8.22s-3.682-8.22-8.22-8.22zm0 13.552a5.333 5.333 0 0 1 0-10.664 5.333 5.333 0 0 1 0 10.664zM26.524 7.458a1.919 1.919 0 1 1-3.838 0 1.919 1.919 0 0 1 3.838 0z"/></symbol><symbol id="icon-linkedin" viewBox="0 0 32 32"><path d="M31.992 32v-.001H32V20.263c0-5.741-1.236-10.164-7.948-10.164-3.227 0-5.392 1.771-6.276 3.449h-.093v-2.913h-6.364v21.364h6.627V21.42c0-2.785.528-5.479 3.977-5.479 3.399 0 3.449 3.179 3.449 5.657v10.401h6.62zM.528 10.636h6.635V32H.528V10.636zM3.843 0C1.722 0 0 1.721 0 3.843s1.721 3.879 3.843 3.879c2.121 0 3.843-1.757 3.843-3.879A3.846 3.846 0 0 0 3.843 0z"/></symbol><symbol id="icon-notebook" viewBox="0 0 32 32"><path fill="#2196f3" d="M14.926 14.965h1.066v4.798h-1.066v-4.797zM19.19 17.097h1.066v2.665H19.19v-2.665zM10.661 18.696h1.066v1.066h-1.066v-1.066zM7.463 18.163h1.066v1.599H7.463v-1.599z" style="fill:var(--color1, #2196f3)"/><path fill="#212121" d="M1.599 28.291h25.587a1.6 1.6 0 0 0 1.599-1.599V24.56a1.6 1.6 0 0 0-1.599-1.599h-.533V9.668L29.681 6.8a1.608 1.608 0 1 0-.746-.763L26.654 8.2V6.97a1.6 1.6 0 0 0-1.599-1.599H3.733A1.6 1.6 0 0 0 2.134 6.97v15.992h-.533a1.6 1.6 0 0 0-1.599 1.599v2.132a1.6 1.6 0 0 0 1.599 1.599zM30.384 4.837a.533.533 0 1 1 0 1.067.533.533 0 0 1 0-1.067zM3.198 6.969c0-.294.239-.533.533-.533h21.322c.294 0 .533.239.533.533v2.239l-1.066 1.013V8.035a.533.533 0 0 0-.533-.533H4.797a.533.533 0 0 0-.533.533v13.326c0 .294.239.533.533.533h19.19a.533.533 0 0 0 .533-.533v-9.674l1.066-1.01v12.284H3.198V6.969zm4.798 6.93a1.598 1.598 0 1 0 1.107 2.749l1.853.93a.532.532 0 0 0 .636-.123l3.939-4.431 3.872 2.901a.533.533 0 0 0 .686-.039l3.365-3.188v8.131H5.33V8.569h18.124v2.66l-3.771 3.572-3.904-2.927a.533.533 0 0 0-.718.072l-3.993 4.493-1.493-.746c.011-.064.018-.129.02-.193a1.6 1.6 0 0 0-1.599-1.599zm.533 1.599a.533.533 0 1 1-1.067 0 .533.533 0 0 1 1.067 0zm3.198 8.529h5.331v.533a.533.533 0 0 1-.533.533h-4.264a.533.533 0 0 1-.533-.533v-.533zm-10.661.533c0-.294.239-.533.533-.533h9.062v.533a1.6 1.6 0 0 0 1.599 1.599h4.264a1.6 1.6 0 0 0 1.599-1.599v-.533h9.062c.294 0 .533.239.533.533v2.132a.533.533 0 0 1-.533.533H1.598a.533.533 0 0 1-.533-.533V24.56z" style="fill:var(--color2, #212121)"/></symbol><symbol id="icon-phone" viewBox="0 0 20 32"><path d="M17 0H3C1.346 0 0 1.346 0 3v26c0 1.654 1.346 3 3 3h14c1.654 0 3-1.346 3-3V3c0-1.654-1.346-3-3-3zM3 2h14a1 1 0 0 1 1 1v21H2V3a1 1 0 0 1 1-1zm14 28H3a1 1 0 0 1-1-1v-3h16v3a1 1 0 0 1-1 1z"/></symbol><symbol id="icon-suputnik" viewBox="0 0 30 32"><path fill="#212121" d="m29.859 22.098-8.443-8.505.937-4.615c.242.094.499.144.758.146h.006a2.159 2.159 0 1 0-2.008-1.435l-4.96.605L8.058.161a.534.534 0 0 0-.377-.16.532.532 0 0 0-.373.155L5.795 1.66a.534.534 0 0 0 0 .754l.814.826a14.943 14.943 0 0 0 2.519 17.663.513.513 0 0 0 .146.098c-.034.18-.051.364-.052.547v6.187h-6.4a2.67 2.67 0 0 0-2.667 2.667v1.067c0 .295.239.533.533.533h24.533a.533.533 0 0 0 .533-.533v-1.067a2.67 2.67 0 0 0-2.667-2.667h-6.4v-2.742a15.09 15.09 0 0 0 3.049.32 14.854 14.854 0 0 0 7.04-1.783l.818.823a.534.534 0 0 0 .377.16.532.532 0 0 0 .373-.155l1.513-1.504a.534.534 0 0 0 0-.754zM22.366 6.233a1.066 1.066 0 1 1 .752 1.822h-.003a1.067 1.067 0 0 1-.747-1.823h-.002zM21.11 9.738l-.598 2.946-1.175-1.182 1.774-1.763zm-.606-.902-1.92 1.909-1.485-1.493 3.405-.415zM23.09 28.8a1.6 1.6 0 0 1 1.6 1.6v.533H1.223V30.4a1.6 1.6 0 0 1 1.6-1.6H23.09zm-7.467-2.133v1.067H10.29v-1.067h5.333zM10.29 25.6v-4.053c0-1.294 1.196-2.347 2.667-2.347s2.667 1.053 2.667 2.347V25.6h-5.333zm6.4-1.696v-2.357c0-1.882-1.675-3.413-3.733-3.413a3.8 3.8 0 0 0-3.281 1.786A13.87 13.87 0 0 1 7.397 4.033l18.602 18.708a13.818 13.818 0 0 1-9.309 1.163zm11.289-.684L6.922 2.039l.755-.752 7.935 7.98c.004 0 .006.007.01.01l13.115 13.191-.757.752z" style="fill:var(--color2, #212121)"/><path fill="#2196f3" d="M12.961 20.267h-.005a1.6 1.6 0 1 0-.004 3.2h.005a1.6 1.6 0 1 0 .004-3.2zm.374 1.978a.534.534 0 0 1-.752-.756.534.534 0 0 1 .373-.155.532.532 0 0 1 .373.911h.005z" style="fill:var(--color1, #2196f3)"/></symbol><symbol id="icon-timer" viewBox="0 0 32 32"><path fill="#212121" d="M31.297 15.301C31.295 6.849 24.442-.002 15.989 0S.686 6.855.688 15.308a15.304 15.304 0 0 0 10.649 14.576.662.662 0 0 0 .529-.065.637.637 0 0 0 .283-.356l3.865-12.25a1.912 1.912 0 1 0-.84-3.635l-5.106-5.107a.637.637 0 0 0-.902.902l5.103 5.109a1.876 1.876 0 0 0 .536 2.309l-3.683 11.673C3.844 25.783.118 17.71 2.799 10.432S13.553-.572 20.831 2.109s11.004 10.754 8.323 18.032a14.042 14.042 0 0 1-7.462 7.973l-.398-1.874a.638.638 0 0 0-1.048-.344l-3.837 3.426a.637.637 0 0 0 .231 1.084l4.899 1.563a.638.638 0 0 0 .819-.74l-.391-1.839a15.255 15.255 0 0 0 9.329-14.089zm-15.305-.637a.638.638 0 1 1 0 1.277.638.638 0 0 1 0-1.277zm2.101 14.864 2.184-1.948.603 2.84-2.787-.892z" style="fill:var(--color2, #212121)"/><path fill="#2196f3" d="M15.354 3.185V4.46a.638.638 0 1 0 1.276 0V3.185a.638.638 0 0 0-1.276 0zM3.876 14.664a.638.638 0 0 0 0 1.276h1.275a.638.638 0 1 0 0-1.276H3.876zM28.108 15.939a.638.638 0 1 0 0-1.276h-1.275a.638.638 0 0 0 0 1.276h1.275z" style="fill:var(--color1, #2196f3)"/></symbol><symbol id="icon-twitter" viewBox="0 0 36 32"><path d="M35.556 4.976c-1.322.58-2.731.964-4.2 1.151a7.247 7.247 0 0 0 3.207-4.029 14.561 14.561 0 0 1-4.622 1.764 7.306 7.306 0 0 0-5.324-2.307c-4.035 0-7.284 3.276-7.284 7.291 0 .578.049 1.133.169 1.662-6.06-.296-11.422-3.2-15.024-7.624a7.337 7.337 0 0 0-.998 3.684 7.3 7.3 0 0 0 3.238 6.058 7.188 7.188 0 0 1-3.293-.898v.08c0 3.542 2.527 6.484 5.84 7.162-.593.162-1.24.24-1.911.24-.467 0-.938-.026-1.38-.124.944 2.887 3.624 5.009 6.811 5.078a14.647 14.647 0 0 1-9.038 3.109 13.52 13.52 0 0 1-1.744-.1c3.229 2.082 7.056 3.271 11.182 3.271 13.413 0 20.747-11.111 20.747-20.742 0-.322-.011-.633-.027-.942 1.447-1.027 2.662-2.309 3.653-3.784z"/></symbol></defs></svg>